HIERARCHY
ROOT ui
{
	 OFFSET 0 0 0
	 CHANNELS 3 XPosition YPosition Z Position
	 EndSite
	 {
	 OFFSET 0 -1 0
	 }
}
ROOT li
{
	 OFFSET 0 0 0
	 CHANNELS 3 XPosition YPosition Z Position
	 EndSite
	 {
	 OFFSET 0 -1 0
	 }
}
ROOT ul
{
	 OFFSET 0 0 0
	 CHANNELS 3 XPosition YPosition Z Position
	 EndSite
	 {
	 OFFSET 0 -1 0
	 }
}
ROOT ll
{
	 OFFSET 0 0 0
	 CHANNELS 3 XPosition YPosition Z Position
	 EndSite
	 {
	 OFFSET 0 -1 0
	 }
}
ROOT tt
{
	 OFFSET 0 0 0
	 CHANNELS 3 XPosition YPosition Z Position
	 EndSite
	 {
	 OFFSET 0 -1 0
	 }
}
ROOT tb
{
	 OFFSET 0 0 0
	 CHANNELS 3 XPosition YPosition Z Position
	 EndSite
	 {
	 OFFSET 0 -1 0
	 }
}
ROOT td
{
	 OFFSET 0 0 0
	 CHANNELS 3 XPosition YPosition Z Position
	 EndSite
	 {
	 OFFSET 0 -1 0
	 }
}
ROOT v
{
	 OFFSET 0 0 0
	 CHANNELS 3 XPosition YPosition Z Position
	 EndSite
	 {
	 OFFSET 0 -1 0
	 }
}
ROOT bn
{
	 OFFSET 0 0 0
	 CHANNELS 3 XPosition YPosition Z Position
	 EndSite
	 {
	 OFFSET 0 -1 0
	 }
}
MOTION
Frames: 16
Frame Time: 0.002
-3.5047799348831177E-4	-0.0011162890195846559	0		0.4560776977539063	-3.0935380859375	0		-0.9522549438476563	0.08670095062255859	0		-0.674020751953125	-2.870310791015625	0		0.8712101440429687	-1.3029622802734375	0		2.58255517578125	-0.8429493408203125	0		4.08513037109375	-0.29011868286132814	0		5.96914306640625	0.51560205078125	0		-0.2187418212890625	5.9163583984375	0		
0.08243506622314453	0.0029419069290161134	0		0.42555307006835935	-3.092987060546875	0		-0.9335646362304687	0.08370416259765626	0		-0.7474555053710937	-2.864085693359375	0		0.8496957397460938	-1.3125660400390624	0		2.566267578125	-0.838761962890625	0		4.07183349609375	-0.29009442138671876	0		5.95576318359375	0.5044732971191406	0		-0.09942157745361328	5.92394677734375	0		
0.007196399211883545	0.0071357378959655765	0		0.450955078125	-3.097196533203125	0		-0.918954833984375	0.07575672149658202	0		-0.7350743408203125	-2.871021240234375	0		0.851328125	-1.3104840087890626	0		2.597718017578125	-0.8532282104492187	0		4.061591796875	-0.2851141662597656	0		5.95647705078125	0.5011495361328125	0		-0.21740089416503905	5.91174267578125	0		
0.0869275894165039	0.007224492073059082	0		0.4173909912109375	-3.099594970703125	0		-0.9439616088867188	0.09535733032226562	0		-0.7437046508789062	-2.879665771484375	0		0.86579443359375	-1.32157177734375	0		2.560486572265625	-0.84474658203125	0		4.06511474609375	-0.2983106994628906	0		5.94310595703125	0.4910323791503906	0		-0.0868954086303711	5.93316259765625	0		
0.0016012500524520874	0.0025890400409698485	0		0.4346739196777344	-3.115674560546875	0		-0.95737060546875	0.08381100463867187	0		-0.7522918090820313	-2.887296875	0		0.8333314819335937	-1.328998291015625	0		2.53299169921875	-0.8573741455078125	0		4.039800048828125	-0.3010845642089844	0		5.92175634765625	0.48105706787109376	0		-0.22197366333007812	5.91323095703125	0		
3.6077699065208433E-4	0.001822793960571289	0		0.37321957397460936	-3.11464208984375	0		-0.95860498046875	0.08311656188964844	0		-0.7567899169921875	-2.89096484375	0		0.8338109741210937	-1.342853271484375	0		2.5345341796875	-0.8693704833984375	0		4.02549658203125	-0.3049727783203125	0		5.92130224609375	0.4618354187011719	0		-0.23690878295898438	5.90267626953125	0		
-8.58053982257843E-4	0.0010826159715652465	0		0.40753973388671877	-3.132908447265625	0		-0.9598180541992187	0.08244432067871094	0		-0.81141748046875	-2.905911865234375	0		0.837357177734375	-1.35372119140625	0		2.530197998046875	-0.8742479858398438	0		4.02304736328125	-0.32098275756835937	0		5.89486767578125	0.443025634765625	0		-0.22258567810058594	5.9107431640625	0		
9.81383979320526E-4	0.003331146001815796	0		0.349205810546875	-3.127847412109375	0		-0.9370032958984374	0.08246263122558593	0		-0.8138397827148437	-2.908553466796875	0		0.8429667358398437	-1.3615830078125	0		2.52303662109375	-0.8680413208007812	0		4.024851318359375	-0.32000018310546874	0		5.886681640625	0.441024658203125	0		-0.09108830261230469	5.93119970703125	0		
-0.00513833999633789	0.007726826190948486	0		0.39865106201171874	-3.14125830078125	0		-0.95410302734375	0.08806989288330078	0		-0.819249267578125	-2.912121337890625	0		0.8345673828125	-1.3712091064453125	0		2.510709716796875	-0.8747137451171875	0		3.989686767578125	-0.3174417419433594	0		5.87750439453125	0.43910479736328123	0		-0.10508525085449219	5.91871484375	0		
-0.001392706036567688	0.0020216848850250243	0		0.3730687866210938	-3.15757568359375	0		-0.9633798217773437	0.08060127258300781	0		-0.7907536010742188	-2.92413330078125	0		0.8282229614257812	-1.3778199462890626	0		2.52339111328125	-0.88168603515625	0		3.99432958984375	-0.3293831787109375	0		5.8639794921875	0.41231350708007813	0		-0.2260680694580078	5.909779296875	0		
-0.010544341087341308	0.00354036808013916	0		0.36765524291992185	-3.163132080078125	0		-0.9645565795898438	0.08005632019042969	0		-0.8331089477539062	-2.926106201171875	0		0.8267589111328125	-1.3934554443359375	0		2.4572138671875	-0.8784901733398438	0		3.9770625	-0.3349558715820313	0		5.841666015625	0.4007161254882812	0		-0.24207115173339844	5.90040966796875	0		
-0.006796494007110596	-0.0020818369388580322	0		0.3363403625488281	-3.16227587890625	0		-0.9538767700195312	0.06938081359863281	0		-0.8266010131835938	-2.93873095703125	0		0.825511474609375	-1.394047119140625	0		2.48958984375	-0.9076400756835937	0		3.9669091796875	-0.33257073974609375	0		5.83324951171875	0.3819857482910156	0		-0.27606576538085936	5.8933388671875	0		
-8.937100172042847E-4	0.0033090670108795166	0		0.3448592529296875	-3.17394140625	0		-0.9429000854492188	0.07974230194091797	0		-0.8770376586914063	-2.94750390625	0		0.77531494140625	-1.39089501953125	0		2.463726318359375	-0.8829066772460937	0		3.94561474609375	-0.339971435546875	0		5.8109443359375	0.37151614379882814	0		-0.22678968811035155	5.9061279296875	0		
-0.0020764520168304445	0.0028437819480895995	0		0.3296314697265625	-3.168221435546875	0		-0.9559354858398438	0.08948671722412109	0		-0.8193778076171875	-2.95077587890625	0		0.8197550048828125	-1.4140478515625	0		2.45049365234375	-0.8843029174804687	0		3.945374755859375	-0.34361492919921877	0		5.787650390625	0.3621243896484375	0		-0.09639713287353516	5.92779736328125	0		
-0.012229401588439942	0.0045510950088500975	0		0.3201845703125	-3.1785400390625	0		-0.9692710571289063	0.0782750244140625	0		-0.902694091796875	-2.951990478515625	0		0.76935107421875	-1.4257974853515625	0		2.432078125	-0.8985735473632812	0		3.92222412109375	-0.34087310791015624	0		5.77335400390625	0.35266766357421875	0		-0.24578105163574218	5.89850390625	0		
-0.00848157024383545	-8.982149958610535E-4	0		0.31279229736328124	-3.1858427734375	0		-0.9704483032226563	0.07793085479736328	0		-0.8232741088867187	-2.97349853515625	0		0.8129867553710938	-1.4358486328125	0		2.44579296875	-0.9042529296875	0		3.91388916015625	-0.35128854370117185	0		5.7649140625	0.333187744140625	0		-0.24675257873535156	5.8981337890625	0		
